<svg xmlns="http://www.w3.org/2000/svg" fill="none" viewBox="0 0 48 48" id="Arrow-Undo--Streamline-Ionic-Filled.svg" height="48" width="48"><desc>Arrow Undo Streamline Icon: https://streamlinehq.com</desc><path fill="#000000" d="M45.7105 44.806c-0.2749 0 -0.5462 -0.0626 -0.7933 -0.183 -0.247 -0.1207 -0.4634 -0.2958 -0.6327 -0.5125 -2.5853 -3.3101 -4.9839 -5.8649 -8.2919 -7.5771 -3.0614 -1.5798 -6.9064 -2.4043 -11.9955 -2.5581v9.0213c-0.0011 0.3531 -0.1056 0.6984 -0.3004 0.9929s-0.4717 0.5256 -0.7964 0.6647c-0.3245 0.1391 -0.6828 0.1802 -1.0306 0.1181 -0.3476 -0.062 -0.6696 -0.2245 -0.926 -0.4673L1.0396 25.3057c-0.1768 -0.1689 -0.3176 -0.3721 -0.4138 -0.5969 -0.0962 -0.2249 -0.1458 -0.4669 -0.1458 -0.7115 0 -0.2446 0.0496 -0.4866 0.1458 -0.7116 0.0962 -0.225 0.237 -0.4279 0.4138 -0.5969L20.9437 3.6895c0.2564 -0.2428 0.5784 -0.4053 0.926 -0.4673 0.3478 -0.0621 0.7061 -0.021 1.0306 0.1181 0.3247 0.1391 0.6016 0.3702 0.7964 0.6648 0.1948 0.2945 0.2993 0.6397 0.3004 0.9929v9.0879c8.3845 0.3857 14.6317 3.4957 18.5865 9.2588 3.2762 4.7736 4.9364 11.3849 4.9364 19.6519 0 0.4798 -0.1905 0.9401 -0.53 1.2794 -0.3393 0.3394 -0.7995 0.53 -1.2795 0.53Z" stroke-width="1"></path></svg>