<svg xmlns="http://www.w3.org/2000/svg" viewBox="0 0 48 48" id="Edit-Pencil-1--Streamline-Freehand" height="48" width="48"><desc>Edit Pencil 1 Streamline Icon: https://streamlinehq.com</desc><g><path d="M34.82 16.36c-0.84 -0.98 -1.74 -2 -2.66 -2.9 -1.24 -1.18 -2.42 -2.18 -3.4 -2.94s-2 0.32 -1.22 1.16 1.46 1.74 2.38 2.8c0.5 0.6 1.06 1.2 1.64 1.8s1.14 1.18 1.7 1.74l2 1.88c0.62 0.52 1.76 -0.4 1.32 -1.24s-0.94 -1.32 -1.76 -2.3Z" fill="#ffffff" fill-rule="evenodd" stroke-width="1"></path><path d="M40.52 18.24c-1.2 1.02 -2.64 2.1 -3.14 2.6S14.72 42.5 13.8 43a28 28 0 0 1 -6 1.8 22.42 22.42 0 0 1 -4.38 0.52 4.92 4.92 0 0 1 -0.9 -0.22l0 -0.84a35.74 35.74 0 0 1 0.42 -6.58A18.24 18.24 0 0 1 4 33.5c0.66 0.7 1.28 1.42 2 2.14s1.24 1.38 1.88 2c1.1 1.12 2.3 2.14 3.54 3.22a0.72 0.72 0 0 0 1 0 0.7 0.7 0 0 0 0 -1c-0.9 -1.16 -1.66 -2.34 -2.52 -3.44a19.72 19.72 0 0 0 -2 -2.14 18 18 0 0 0 -3.08 -2.2C7.12 29.36 29.38 7.4 29.78 7l0.22 -0.3a1.24 1.24 0 0 0 0.12 -0.24 0.6 0.6 0 0 0 -0.12 -0.62c-0.56 -0.54 -0.7 -0.14 -3.54 2.54 -6.64 6.24 -23.3 22 -24 23.16a19.74 19.74 0 0 0 -2.16 7.22A33.76 33.76 0 0 0 0 45.44a2.86 2.86 0 0 0 0.44 1.32 2.42 2.42 0 0 0 1.3 0.76 10.26 10.26 0 0 0 3.66 0 35.56 35.56 0 0 0 9.6 -2.44c0.8 -0.48 12 -11.1 20 -19.02 0 0 4.16 -4.14 6.68 -6.46 1.36 -1.02 -0.34 -1.82 -1.16 -1.36Z" fill="#ffffff" fill-rule="evenodd" stroke-width="1"></path><path d="M47.82 10.98A17.62 17.62 0 0 0 44 4.78a19.06 19.06 0 0 0 -3.52 -3 6.58 6.58 0 0 0 -4.8 -1.4 11.3 11.3 0 0 0 -4 2.68 4.74 4.74 0 0 0 -0.78 0.98 0.84 0.84 0 0 0 0 0.58 0.64 0.64 0 0 0 0.14 0.6l11.48 12c0.86 0.82 2 -0.26 2.24 -0.4 0.68 -0.62 1.8 -2 2.8 -3.2a2.74 2.74 0 0 0 0.26 -2.64Zm-1.7 1.4c-0.9 1.22 -1 1.54 -1.4 2a4.6 4.6 0 0 1 -1.06 1.06 2 2 0 0 0 -0.18 0.34c-2.42 -2.54 -9.4 -9.5 -11.2 -11.38A8 8 0 0 1 36 2.18c0.88 -0.14 2 0.58 3.12 1.48a25.16 25.16 0 0 1 3 2.74 21.48 21.48 0 0 1 3.48 4.52A3.48 3.48 0 0 1 46 12c0.1 0.2 0.18 0.3 0.12 0.38Z" fill="#ffffff" fill-rule="evenodd" stroke-width="1"></path></g></svg>