<svg xmlns="http://www.w3.org/2000/svg" viewBox="0 0 24 24" id="Award-Share-Star-Favorite--Streamline-Nova" height="24" width="24">
  <desc>Award Share Star Favorite Streamline Icon: https://streamlinehq.com</desc>

  <path d="M10.93 4.455a0.292 0.292 0 0 1 0.216 -0.49h3.239L16.074 0.587a0.293 0.293 0 0 1 0.523 0l1.689 3.378h3.252a0.292 0.292 0 0 1 0.219 0.486L19.17 7.378l0.874 3.6a0.293 0.293 0 0 1 -0.46 0.3l-3.249 -2.437 -3.228 2.421a0.292 0.292 0 0 1 -0.458 -0.308l0.943 -3.576zM4 16.557V16a1 1 0 0 0 -1 -1H1a1 1 0 0 0 -1 1v7a1 1 0 0 0 1 1h2a1 1 0 0 0 1 -1zm16.924 2.06A1 1 0 0 0 20 18h-8.586l1.293 -1.293a1 1 0 0 0 0 -1.414l-1 -1a1.007 1.007 0 0 0 -1.059 -0.23L5 16.182V23h12a1 1 0 0 0 0.707 -0.293l3 -3a1 1 0 0 0 0.217 -1.09z" fill="#ffffff" stroke-width="1"></path>
</svg>
