<svg xmlns="http://www.w3.org/2000/svg" viewBox="0 0 24 24" id="Role-Playing-Games-Icon-Aura--Streamline-Freehand" height="24" width="24"><desc>Role Playing Games Icon Aura Streamline Icon: https://streamlinehq.com</desc><title>role-playing-games-icon-aura</title><g><path d="M8 15.52a4.17 4.17 0 0 0 0.8 0.48 6.61 6.61 0 0 0 1.06 0.45 3.66 3.66 0 0 0 0.81 0.18 5.48 5.48 0 0 0 3.1 -0.56 4.73 4.73 0 0 0 2.13 -2.33 5.13 5.13 0 0 0 0 -3.76C14.46 6.17 9.27 7.17 7.59 9a4.57 4.57 0 0 0 -0.21 5.83 4 4 0 0 0 0.62 0.69Zm0.24 -5.9c1.72 -2.12 5.88 -2.34 6.88 0.65a4.19 4.19 0 0 1 -0.12 3.08 3.76 3.76 0 0 1 -1.74 1.76 4.48 4.48 0 0 1 -2.48 0.39 3.45 3.45 0 0 1 -0.72 -0.18q-0.39 -0.15 -0.75 -0.33a4.38 4.38 0 0 1 -0.58 -0.37 2.92 2.92 0 0 1 -0.47 -0.46 3.57 3.57 0 0 1 0.01 -4.54Z" fill="#000000" fill-rule="evenodd" stroke-width="1"></path><path d="M17.91 20.4A9.55 9.55 0 0 0 15.2 18a7.08 7.08 0 0 0 -4.4 -0.66 8.15 8.15 0 0 0 -4 1.85 8.51 8.51 0 0 0 -1.64 2.05 9.6 9.6 0 0 0 -1 2.38 0.3 0.3 0 0 0 0.2 0.37 0.29 0.29 0 0 0 0.37 -0.19 9.42 9.42 0 0 1 1.09 -2.2A7.19 7.19 0 0 1 11 18.43a6.17 6.17 0 0 1 3.72 0.47 8.59 8.59 0 0 1 2.51 2.1A10.22 10.22 0 0 1 19 23.77a0.35 0.35 0 0 0 0.44 0.21 0.34 0.34 0 0 0 0.2 -0.44 10.9 10.9 0 0 0 -1.73 -3.14Z" fill="#000000" fill-rule="evenodd" stroke-width="1"></path><path d="M5.51 16.23a0.33 0.33 0 0 0 -0.45 -0.15c-0.53 0.19 -1.06 0.34 -1.59 0.54 -0.22 0.09 -0.44 0.18 -0.66 0.29a5.49 5.49 0 0 0 -0.63 0.34 15.31 15.31 0 0 0 -1.37 1 0.29 0.29 0 0 0 -0.1 0.41 0.3 0.3 0 0 0 0.41 0.11c0.52 -0.21 1 -0.36 1.56 -0.57 0.22 -0.09 0.43 -0.18 0.64 -0.29s0.42 -0.22 0.62 -0.34c0.49 -0.29 0.95 -0.6 1.42 -0.91a0.34 0.34 0 0 0 0.15 -0.43Z" fill="#000000" fill-rule="evenodd" stroke-width="1"></path><path d="M21.82 16.93a6.37 6.37 0 0 0 -0.63 -0.35l-0.66 -0.28c-0.53 -0.2 -1.06 -0.36 -1.58 -0.54a0.34 0.34 0 0 0 -0.31 0.61c0.47 0.31 0.93 0.62 1.42 0.91 0.2 0.12 0.41 0.23 0.62 0.34l0.64 0.29c0.52 0.21 1 0.36 1.56 0.57a0.32 0.32 0 0 0 0.42 -0.11 0.31 0.31 0 0 0 -0.11 -0.41 13.62 13.62 0 0 0 -1.37 -1.03Z" fill="#000000" fill-rule="evenodd" stroke-width="1"></path><path d="m3.26 11.48 -0.28 0a1.27 1.27 0 0 0 -0.28 0s-1 0.28 -1 0.57 1 0.53 1 0.53a0.93 0.93 0 0 0 0.29 0 1.35 1.35 0 0 0 0.29 0c1 -0.24 1 -0.43 1 -0.62s-0.05 -0.32 -1.02 -0.48Z" fill="#000000" fill-rule="evenodd" stroke-width="1"></path><path d="M21 12.28a0.93 0.93 0 0 0 0.29 0s1 -0.24 1 -0.53 -0.94 -0.56 -1 -0.57a1.27 1.27 0 0 0 -0.28 0l-0.28 0c-1 0.17 -1 0.28 -1 0.47s0 0.38 1 0.62a1.35 1.35 0 0 0 0.27 0.01Z" fill="#000000" fill-rule="evenodd" stroke-width="1"></path><path d="M1.92 5.83c0.23 0.21 0.47 0.41 0.71 0.59s0.5 0.36 0.76 0.53C4 7.34 4.63 7.68 5.25 8a0.35 0.35 0 0 0 0.48 0 0.34 0.34 0 0 0 -0.09 -0.48C5.1 7 4.58 6.54 4 6.08c-0.23 -0.2 -0.46 -0.39 -0.7 -0.57s-0.45 -0.37 -0.7 -0.51C2 4.57 1.41 4.22 0.84 3.8a0.31 0.31 0 0 0 -0.43 0 0.31 0.31 0 0 0 0 0.43 18.55 18.55 0 0 0 1.51 1.6Z" fill="#000000" fill-rule="evenodd" stroke-width="1"></path><path d="M23.59 3.5a0.31 0.31 0 0 0 -0.43 0c-0.57 0.41 -1.17 0.77 -1.76 1.17 -0.25 0.17 -0.49 0.35 -0.73 0.54s-0.47 0.37 -0.7 0.57c-0.55 0.46 -1.07 0.93 -1.61 1.39a0.34 0.34 0 0 0 -0.09 0.48 0.35 0.35 0 0 0 0.48 0.08c0.62 -0.37 1.25 -0.73 1.86 -1.1 0.26 -0.17 0.51 -0.34 0.76 -0.53s0.48 -0.38 0.71 -0.59a18.55 18.55 0 0 0 1.49 -1.58 0.31 0.31 0 0 0 0.02 -0.43Z" fill="#000000" fill-rule="evenodd" stroke-width="1"></path><path d="M7.19 4.65a1.52 1.52 0 0 0 0.22 0.22c0.79 0.69 0.92 0.64 1.07 0.52s0.26 -0.25 -0.22 -1.19a2 2 0 0 0 -0.17 -0.27 1.1 1.1 0 0 0 -0.21 -0.22s-0.83 -0.66 -1.08 -0.46S7 4.38 7 4.4a2.2 2.2 0 0 0 0.19 0.25Z" fill="#000000" fill-rule="evenodd" stroke-width="1"></path><path d="M15.09 5.36c0.15 0.11 0.27 0.17 1.08 -0.49a2.39 2.39 0 0 0 0.23 -0.22 1.38 1.38 0 0 0 0.17 -0.25s0.49 -0.94 0.25 -1.14 -1.07 0.41 -1.08 0.43a1.2 1.2 0 0 0 -0.23 0.22 1.78 1.78 0 0 0 -0.17 0.27c-0.51 0.92 -0.4 1.06 -0.25 1.18Z" fill="#000000" fill-rule="evenodd" stroke-width="1"></path><path d="M11.38 5.14a0.35 0.35 0 0 0 0.69 0c0 -0.57 0.13 -1.13 0.16 -1.7l0 -0.72a5.79 5.79 0 0 0 0 -0.72c-0.07 -0.59 -0.18 -1.13 -0.23 -1.7a0.3 0.3 0 0 0 -0.6 0c-0.08 0.57 -0.19 1.12 -0.24 1.7a5.9 5.9 0 0 0 0 0.73l0 0.72c0.05 0.55 0.14 1.12 0.22 1.69Z" fill="#000000" fill-rule="evenodd" stroke-width="1"></path></g></svg>